# xmcd
#
# Track frame offsets:
#	150
#	18862
#	36471
#	53712
#	67269
#	85931
#	104007
#	121712
#	140628
#	159267
#	177145
#	194665
#	210096
#
# Disc length: 3056 seconds
#
# Revision: 0
# Processed by: cddbd v1.5.2PL0 Copyright (c) Steve Scherf et al.
# Submitted via: EasyCDDAExtractor 15.3.0.1
#
DISCID=b20bee0d
DTITLE=Yuri - Inusual
DYEAR=2010
DGENRE=Latin
TTITLE0=Arrepentida
TTITLE1=Aire
TTITLE2=Como Una Loba
TTITLE3=Por Ti
TTITLE4=Estoy Cansada
TTITLE5=Pero Te Vas A Arrepentir
TTITLE6=Si No Estas Aqui
TTITLE7=Ya Para Que
TTITLE8=Pero No Te Olvido
TTITLE9=El Amor De Mi Vida
TTITLE10=Tu Eres Para Mi
TTITLE11=Si Tu Te Vas
TTITLE12=Fuera De Mi Vida
EXTD=
EXTT0=
EXTT1=
EXTT2=
EXTT3=
EXTT4=
EXTT5=
EXTT6=
EXTT7=
EXTT8=
EXTT9=
EXTT10=
EXTT11=
EXTT12=
PLAYORDER=
